<mxfile host="65bd71144e">
    <diagram id="tIf9QCWue3e1gUFkAyWC" name="ページ1">
        <mxGraphModel dx="721" dy="1059" grid="1" gridSize="10" guides="1" tooltips="1" connect="1" arrows="1" fold="1" page="1" pageScale="1" pageWidth="827" pageHeight="1169" math="0" shadow="0">
            <root>
                <mxCell id="0"/>
                <mxCell id="1" parent="0"/>
                <mxCell id="2" value="" style="endArrow=diamond;html=1;endFill=1;" edge="1" parent="1" target="4">
                    <mxGeometry width="50" height="50" relative="1" as="geometry">
                        <mxPoint x="120" y="240" as="sourcePoint"/>
                        <mxPoint x="280" y="240" as="targetPoint"/>
                    </mxGeometry>
                </mxCell>
                <mxCell id="3" value="c_status" style="edgeLabel;html=1;align=center;verticalAlign=middle;resizable=0;points=[];" vertex="1" connectable="0" parent="2">
                    <mxGeometry x="-0.9028" y="1" relative="1" as="geometry">
                        <mxPoint x="-42" as="offset"/>
                    </mxGeometry>
                </mxCell>
                <mxCell id="4" value="" style="shape=offPageConnector;whiteSpace=wrap;html=1;rotation=-90;" vertex="1" parent="1">
                    <mxGeometry x="300" y="200" width="40" height="80" as="geometry"/>
                </mxCell>
                <mxCell id="5" value="" style="endArrow=diamond;html=1;endFill=1;" edge="1" parent="1" source="4">
                    <mxGeometry width="50" height="50" relative="1" as="geometry">
                        <mxPoint x="360" y="239.62000000000012" as="sourcePoint"/>
                        <mxPoint x="520" y="239.62000000000012" as="targetPoint"/>
                    </mxGeometry>
                </mxCell>
                <mxCell id="43" value="c_isLitBoilingLamp" style="edgeLabel;html=1;align=center;verticalAlign=middle;resizable=0;points=[];" vertex="1" connectable="0" parent="5">
                    <mxGeometry x="0.6426" y="-1" relative="1" as="geometry">
                        <mxPoint x="99" y="-1" as="offset"/>
                    </mxGeometry>
                </mxCell>
                <mxCell id="7" value="" style="endArrow=diamond;html=1;endFill=1;" edge="1" parent="1" source="8">
                    <mxGeometry width="50" height="50" relative="1" as="geometry">
                        <mxPoint x="360" y="320.3040000000001" as="sourcePoint"/>
                        <mxPoint x="520" y="320.0000000000001" as="targetPoint"/>
                    </mxGeometry>
                </mxCell>
                <mxCell id="42" value="c_isLitWarmingLamp" style="edgeLabel;html=1;align=center;verticalAlign=middle;resizable=0;points=[];" vertex="1" connectable="0" parent="7">
                    <mxGeometry x="0.5957" y="3" relative="1" as="geometry">
                        <mxPoint x="103" as="offset"/>
                    </mxGeometry>
                </mxCell>
                <mxCell id="8" value="" style="shape=offPageConnector;whiteSpace=wrap;html=1;rotation=-90;" vertex="1" parent="1">
                    <mxGeometry x="300" y="280" width="40" height="80" as="geometry"/>
                </mxCell>
                <mxCell id="9" value="" style="endArrow=diamond;html=1;endFill=1;" edge="1" parent="1" target="8">
                    <mxGeometry width="50" height="50" relative="1" as="geometry">
                        <mxPoint x="160" y="240" as="sourcePoint"/>
                        <mxPoint x="300" y="360.0000000000001" as="targetPoint"/>
                        <Array as="points">
                            <mxPoint x="200" y="240"/>
                            <mxPoint x="200" y="320"/>
                        </Array>
                    </mxGeometry>
                </mxCell>
                <mxCell id="11" value="" style="endArrow=diamond;html=1;endFill=1;" edge="1" parent="1" target="13">
                    <mxGeometry width="50" height="50" relative="1" as="geometry">
                        <mxPoint x="120" y="399.9999999999999" as="sourcePoint"/>
                        <mxPoint x="280" y="400" as="targetPoint"/>
                    </mxGeometry>
                </mxCell>
                <mxCell id="12" value="c_keepWarmMode" style="edgeLabel;html=1;align=center;verticalAlign=middle;resizable=0;points=[];" vertex="1" connectable="0" parent="11">
                    <mxGeometry x="-0.9028" y="1" relative="1" as="geometry">
                        <mxPoint x="-58" y="1" as="offset"/>
                    </mxGeometry>
                </mxCell>
                <mxCell id="13" value="" style="shape=offPageConnector;whiteSpace=wrap;html=1;rotation=-90;" vertex="1" parent="1">
                    <mxGeometry x="300" y="360" width="40" height="80" as="geometry"/>
                </mxCell>
                <mxCell id="14" value="" style="endArrow=diamond;html=1;endFill=1;" edge="1" parent="1" source="13">
                    <mxGeometry width="50" height="50" relative="1" as="geometry">
                        <mxPoint x="360" y="399.6200000000001" as="sourcePoint"/>
                        <mxPoint x="520" y="399.62" as="targetPoint"/>
                    </mxGeometry>
                </mxCell>
                <mxCell id="41" value="c_isLitWarmHighLamp" style="edgeLabel;html=1;align=center;verticalAlign=middle;resizable=0;points=[];" vertex="1" connectable="0" parent="14">
                    <mxGeometry x="0.4552" y="5" relative="1" as="geometry">
                        <mxPoint x="124" as="offset"/>
                    </mxGeometry>
                </mxCell>
                <mxCell id="15" value="" style="endArrow=diamond;html=1;endFill=1;" edge="1" parent="1" source="16">
                    <mxGeometry width="50" height="50" relative="1" as="geometry">
                        <mxPoint x="360" y="480.3040000000001" as="sourcePoint"/>
                        <mxPoint x="520" y="480" as="targetPoint"/>
                    </mxGeometry>
                </mxCell>
                <mxCell id="40" value="c_isLitWarmEconomyLamp" style="edgeLabel;html=1;align=center;verticalAlign=middle;resizable=0;points=[];" vertex="1" connectable="0" parent="15">
                    <mxGeometry x="0.5645" y="-1" relative="1" as="geometry">
                        <mxPoint x="125" y="-1" as="offset"/>
                    </mxGeometry>
                </mxCell>
                <mxCell id="16" value="" style="shape=offPageConnector;whiteSpace=wrap;html=1;rotation=-90;" vertex="1" parent="1">
                    <mxGeometry x="300" y="440" width="40" height="80" as="geometry"/>
                </mxCell>
                <mxCell id="17" value="" style="endArrow=diamond;html=1;endFill=1;" edge="1" parent="1" target="16">
                    <mxGeometry width="50" height="50" relative="1" as="geometry">
                        <mxPoint x="160" y="399.9999999999999" as="sourcePoint"/>
                        <mxPoint x="300" y="520.0000000000001" as="targetPoint"/>
                        <Array as="points">
                            <mxPoint x="200" y="400"/>
                            <mxPoint x="200" y="480"/>
                        </Array>
                    </mxGeometry>
                </mxCell>
                <mxCell id="18" value="" style="endArrow=diamond;html=1;endFill=1;" edge="1" parent="1" source="19">
                    <mxGeometry width="50" height="50" relative="1" as="geometry">
                        <mxPoint x="360" y="560.3040000000001" as="sourcePoint"/>
                        <mxPoint x="520.0000000000001" y="560" as="targetPoint"/>
                    </mxGeometry>
                </mxCell>
                <mxCell id="39" value="c_isLitWarmMilk" style="edgeLabel;html=1;align=center;verticalAlign=middle;resizable=0;points=[];" vertex="1" connectable="0" parent="18">
                    <mxGeometry x="0.5488" relative="1" as="geometry">
                        <mxPoint x="106" as="offset"/>
                    </mxGeometry>
                </mxCell>
                <mxCell id="19" value="" style="shape=offPageConnector;whiteSpace=wrap;html=1;rotation=-90;" vertex="1" parent="1">
                    <mxGeometry x="300" y="520" width="40" height="80" as="geometry"/>
                </mxCell>
                <mxCell id="20" value="" style="endArrow=diamond;html=1;endFill=1;" edge="1" parent="1" target="19">
                    <mxGeometry width="50" height="50" relative="1" as="geometry">
                        <mxPoint x="200" y="440" as="sourcePoint"/>
                        <mxPoint x="300" y="600.0000000000001" as="targetPoint"/>
                        <Array as="points">
                            <mxPoint x="200" y="480"/>
                            <mxPoint x="200" y="560"/>
                        </Array>
                    </mxGeometry>
                </mxCell>
                <mxCell id="21" value="" style="endArrow=diamond;html=1;endFill=1;" edge="1" parent="1" target="23">
                    <mxGeometry width="50" height="50" relative="1" as="geometry">
                        <mxPoint x="120" y="640" as="sourcePoint"/>
                        <mxPoint x="280" y="640" as="targetPoint"/>
                    </mxGeometry>
                </mxCell>
                <mxCell id="22" value="c_temperature" style="edgeLabel;html=1;align=center;verticalAlign=middle;resizable=0;points=[];" vertex="1" connectable="0" parent="21">
                    <mxGeometry x="-0.9028" y="1" relative="1" as="geometry">
                        <mxPoint x="-48" y="1" as="offset"/>
                    </mxGeometry>
                </mxCell>
                <mxCell id="23" value="" style="shape=offPageConnector;whiteSpace=wrap;html=1;rotation=-90;" vertex="1" parent="1">
                    <mxGeometry x="300" y="600" width="40" height="80" as="geometry"/>
                </mxCell>
                <mxCell id="24" value="" style="endArrow=diamond;html=1;endFill=1;" edge="1" parent="1" source="23">
                    <mxGeometry width="50" height="50" relative="1" as="geometry">
                        <mxPoint x="360" y="639.6200000000001" as="sourcePoint"/>
                        <mxPoint x="520.0000000000001" y="639.6200000000001" as="targetPoint"/>
                    </mxGeometry>
                </mxCell>
                <mxCell id="38" value="c_temperatureLCD" style="edgeLabel;html=1;align=center;verticalAlign=middle;resizable=0;points=[];" vertex="1" connectable="0" parent="24">
                    <mxGeometry x="0.6583" y="3" relative="1" as="geometry">
                        <mxPoint x="98" y="3" as="offset"/>
                    </mxGeometry>
                </mxCell>
                <mxCell id="25" value="" style="endArrow=diamond;html=1;endFill=1;" edge="1" parent="1" target="27">
                    <mxGeometry width="50" height="50" relative="1" as="geometry">
                        <mxPoint x="120" y="720" as="sourcePoint"/>
                        <mxPoint x="280" y="720" as="targetPoint"/>
                    </mxGeometry>
                </mxCell>
                <mxCell id="26" value="c_timer" style="edgeLabel;html=1;align=center;verticalAlign=middle;resizable=0;points=[];" vertex="1" connectable="0" parent="25">
                    <mxGeometry x="-0.9028" y="1" relative="1" as="geometry">
                        <mxPoint x="-42" as="offset"/>
                    </mxGeometry>
                </mxCell>
                <mxCell id="27" value="" style="shape=offPageConnector;whiteSpace=wrap;html=1;rotation=-90;" vertex="1" parent="1">
                    <mxGeometry x="300" y="680" width="40" height="80" as="geometry"/>
                </mxCell>
                <mxCell id="28" value="" style="endArrow=diamond;html=1;endFill=1;" edge="1" parent="1" source="27">
                    <mxGeometry width="50" height="50" relative="1" as="geometry">
                        <mxPoint x="360" y="719.6200000000001" as="sourcePoint"/>
                        <mxPoint x="520.0000000000001" y="719.6200000000001" as="targetPoint"/>
                    </mxGeometry>
                </mxCell>
                <mxCell id="37" value="c_timerLCD" style="edgeLabel;html=1;align=center;verticalAlign=middle;resizable=0;points=[];" vertex="1" connectable="0" parent="28">
                    <mxGeometry x="0.6738" y="-1" relative="1" as="geometry">
                        <mxPoint x="86" y="-1" as="offset"/>
                    </mxGeometry>
                </mxCell>
                <mxCell id="29" value="" style="endArrow=diamond;html=1;endFill=1;" edge="1" parent="1">
                    <mxGeometry width="50" height="50" relative="1" as="geometry">
                        <mxPoint x="117.12" y="800" as="sourcePoint"/>
                        <mxPoint x="523" y="800" as="targetPoint"/>
                    </mxGeometry>
                </mxCell>
                <mxCell id="30" value="c_waterLevel" style="edgeLabel;html=1;align=center;verticalAlign=middle;resizable=0;points=[];" vertex="1" connectable="0" parent="29">
                    <mxGeometry x="-0.9028" y="1" relative="1" as="geometry">
                        <mxPoint x="-60" as="offset"/>
                    </mxGeometry>
                </mxCell>
                <mxCell id="36" value="c_waterLevelMeter" style="edgeLabel;html=1;align=center;verticalAlign=middle;resizable=0;points=[];" vertex="1" connectable="0" parent="29">
                    <mxGeometry x="0.8874" y="2" relative="1" as="geometry">
                        <mxPoint x="100" as="offset"/>
                    </mxGeometry>
                </mxCell>
                <mxCell id="33" value="" style="endArrow=diamond;html=1;endFill=1;" edge="1" parent="1">
                    <mxGeometry width="50" height="50" relative="1" as="geometry">
                        <mxPoint x="117.12" y="840" as="sourcePoint"/>
                        <mxPoint x="522.8800097656251" y="840" as="targetPoint"/>
                    </mxGeometry>
                </mxCell>
                <mxCell id="34" value="c_lock" style="edgeLabel;html=1;align=center;verticalAlign=middle;resizable=0;points=[];" vertex="1" connectable="0" parent="33">
                    <mxGeometry x="-0.9028" y="1" relative="1" as="geometry">
                        <mxPoint x="-60" as="offset"/>
                    </mxGeometry>
                </mxCell>
                <mxCell id="35" value="c_isLitLockLamp" style="edgeLabel;html=1;align=center;verticalAlign=middle;resizable=0;points=[];" vertex="1" connectable="0" parent="33">
                    <mxGeometry x="0.9311" relative="1" as="geometry">
                        <mxPoint x="92" as="offset"/>
                    </mxGeometry>
                </mxCell>
            </root>
        </mxGraphModel>
    </diagram>
</mxfile>